<mxfile host="app.diagrams.net" agent="Mozilla/5.0 (Windows NT 10.0; Win64; x64) AppleWebKit/537.36 (KHTML, like Gecko) Chrome/135.0.0.0 Safari/537.36" version="26.2.14">
  <diagram name="Page-1" id="AQuq9yU_86yzs0SmMZtj">
    <mxGraphModel dx="3030" dy="1248" grid="1" gridSize="10" guides="1" tooltips="1" connect="1" arrows="1" fold="1" page="1" pageScale="1" pageWidth="850" pageHeight="1100" math="0" shadow="0">
      <root>
        <mxCell id="0" />
        <mxCell id="1" parent="0" />
        <mxCell id="NB2mlU9tLwfZxPMm6pL--1" value="&lt;div&gt;&lt;br&gt;&lt;/div&gt;&lt;div&gt;&lt;br&gt;&lt;/div&gt;&lt;div&gt;&lt;br&gt;&lt;/div&gt;&lt;div&gt;&lt;br&gt;&lt;/div&gt;&lt;div&gt;&lt;br&gt;&lt;/div&gt;&lt;div&gt;&lt;br&gt;&lt;/div&gt;&lt;div&gt;&lt;br&gt;&lt;/div&gt;&lt;div&gt;&lt;br&gt;&lt;/div&gt;&lt;div&gt;&lt;br&gt;&lt;/div&gt;&lt;div&gt;&lt;br&gt;&lt;/div&gt;&lt;div&gt;&lt;br&gt;&lt;/div&gt;&lt;div&gt;&lt;br&gt;&lt;/div&gt;&lt;div&gt;&lt;br&gt;&lt;/div&gt;&lt;div&gt;&lt;br&gt;&lt;/div&gt;&lt;div&gt;&lt;br&gt;&lt;/div&gt;&lt;div&gt;&lt;br&gt;&lt;/div&gt;&lt;div&gt;&lt;br&gt;&lt;/div&gt;&lt;div&gt;&lt;br&gt;&lt;/div&gt;&lt;div&gt;&lt;br&gt;&lt;/div&gt;&lt;div&gt;&lt;br&gt;&lt;/div&gt;&lt;div&gt;&lt;br&gt;&lt;/div&gt;&lt;div&gt;&lt;br&gt;&lt;/div&gt;&lt;div&gt;&lt;br&gt;&lt;/div&gt;&lt;div&gt;&lt;br&gt;&lt;/div&gt;&lt;div&gt;&lt;br&gt;&lt;/div&gt;&lt;div&gt;&lt;br&gt;&lt;/div&gt;&lt;div&gt;&lt;br&gt;&lt;/div&gt;&lt;div&gt;&lt;br&gt;&lt;/div&gt;&lt;div&gt;&lt;br&gt;&lt;/div&gt;&lt;div&gt;&lt;br&gt;&lt;/div&gt;&lt;div&gt;&lt;br&gt;&lt;/div&gt;&lt;div&gt;&lt;br&gt;&lt;/div&gt;&lt;div&gt;&lt;br&gt;&lt;/div&gt;&lt;div&gt;&lt;br&gt;&lt;/div&gt;&lt;div&gt;&lt;br&gt;&lt;/div&gt;&lt;div&gt;&lt;br&gt;&lt;/div&gt;&lt;div&gt;&lt;br&gt;&lt;/div&gt;" style="endArrow=none;html=1;rounded=0;" parent="1" edge="1">
          <mxGeometry width="50" height="50" relative="1" as="geometry">
            <mxPoint x="130" y="2440" as="sourcePoint" />
            <mxPoint x="140" y="40" as="targetPoint" />
          </mxGeometry>
        </mxCell>
        <mxCell id="NB2mlU9tLwfZxPMm6pL--2" value="" style="endArrow=none;html=1;rounded=0;" parent="1" edge="1">
          <mxGeometry width="50" height="50" relative="1" as="geometry">
            <mxPoint x="400" y="2440" as="sourcePoint" />
            <mxPoint x="400" y="40" as="targetPoint" />
          </mxGeometry>
        </mxCell>
        <mxCell id="NB2mlU9tLwfZxPMm6pL--3" value="" style="endArrow=none;html=1;rounded=0;" parent="1" edge="1">
          <mxGeometry width="50" height="50" relative="1" as="geometry">
            <mxPoint x="730" y="2440" as="sourcePoint" />
            <mxPoint x="720" y="40" as="targetPoint" />
          </mxGeometry>
        </mxCell>
        <mxCell id="NB2mlU9tLwfZxPMm6pL--4" value="" style="endArrow=none;html=1;rounded=0;" parent="1" edge="1">
          <mxGeometry width="50" height="50" relative="1" as="geometry">
            <mxPoint x="1120" y="2440" as="sourcePoint" />
            <mxPoint x="1120" y="40" as="targetPoint" />
          </mxGeometry>
        </mxCell>
        <mxCell id="NB2mlU9tLwfZxPMm6pL--8" value="" style="endArrow=none;html=1;rounded=0;" parent="1" edge="1">
          <mxGeometry width="50" height="50" relative="1" as="geometry">
            <mxPoint x="-170" y="40" as="sourcePoint" />
            <mxPoint x="1760" y="40" as="targetPoint" />
          </mxGeometry>
        </mxCell>
        <mxCell id="NB2mlU9tLwfZxPMm6pL--9" value="" style="endArrow=none;html=1;rounded=0;" parent="1" edge="1">
          <mxGeometry width="50" height="50" relative="1" as="geometry">
            <mxPoint x="-160" y="2440" as="sourcePoint" />
            <mxPoint x="-170" y="40" as="targetPoint" />
          </mxGeometry>
        </mxCell>
        <mxCell id="NB2mlU9tLwfZxPMm6pL--12" value="&lt;font style=&quot;font-size: 24px;&quot;&gt;Patient&lt;/font&gt;" style="text;html=1;align=center;verticalAlign=middle;resizable=0;points=[];autosize=1;strokeColor=none;fillColor=none;" parent="1" vertex="1">
          <mxGeometry x="-64.99" y="53" width="100" height="40" as="geometry" />
        </mxCell>
        <mxCell id="TVPUv2TVgBcwgDp_R8LY-1" value="" style="endArrow=none;html=1;rounded=0;" parent="1" edge="1">
          <mxGeometry width="50" height="50" relative="1" as="geometry">
            <mxPoint x="-170" y="100" as="sourcePoint" />
            <mxPoint x="1760" y="100" as="targetPoint" />
          </mxGeometry>
        </mxCell>
        <mxCell id="TVPUv2TVgBcwgDp_R8LY-3" value="" style="ellipse;html=1;shape=endState;fillColor=#000000;strokeColor=#ff0000;" parent="1" vertex="1">
          <mxGeometry x="-4.990000000000002" y="2380" width="30" height="30" as="geometry" />
        </mxCell>
        <mxCell id="TVPUv2TVgBcwgDp_R8LY-22" style="edgeStyle=orthogonalEdgeStyle;rounded=0;orthogonalLoop=1;jettySize=auto;html=1;exitX=1;exitY=0.5;exitDx=0;exitDy=0;" parent="1" source="TVPUv2TVgBcwgDp_R8LY-17" target="TVPUv2TVgBcwgDp_R8LY-21" edge="1">
          <mxGeometry relative="1" as="geometry">
            <Array as="points">
              <mxPoint x="70" y="220" />
            </Array>
          </mxGeometry>
        </mxCell>
        <mxCell id="TVPUv2TVgBcwgDp_R8LY-26" value="No" style="edgeLabel;html=1;align=center;verticalAlign=middle;resizable=0;points=[];" parent="TVPUv2TVgBcwgDp_R8LY-22" vertex="1" connectable="0">
          <mxGeometry x="-0.6133" y="2" relative="1" as="geometry">
            <mxPoint as="offset" />
          </mxGeometry>
        </mxCell>
        <mxCell id="lL4PlwEop6gVYXVX2AZE-20" value="&lt;font style=&quot;font-size: 14px;&quot;&gt;No&lt;/font&gt;" style="edgeLabel;html=1;align=center;verticalAlign=middle;resizable=0;points=[];" vertex="1" connectable="0" parent="TVPUv2TVgBcwgDp_R8LY-22">
          <mxGeometry x="-0.6098" relative="1" as="geometry">
            <mxPoint as="offset" />
          </mxGeometry>
        </mxCell>
        <mxCell id="TVPUv2TVgBcwgDp_R8LY-17" value="&lt;font style=&quot;font-size: 14px;&quot;&gt;Already&amp;nbsp;&lt;/font&gt;&lt;div&gt;&lt;font style=&quot;font-size: 14px;&quot;&gt;registered?&lt;/font&gt;&lt;/div&gt;" style="rhombus;whiteSpace=wrap;html=1;" parent="1" vertex="1">
          <mxGeometry x="-80" y="180" width="110" height="80" as="geometry" />
        </mxCell>
        <mxCell id="TVPUv2TVgBcwgDp_R8LY-30" style="edgeStyle=orthogonalEdgeStyle;rounded=0;orthogonalLoop=1;jettySize=auto;html=1;exitX=0.5;exitY=1;exitDx=0;exitDy=0;entryX=0;entryY=0.5;entryDx=0;entryDy=0;" parent="1" source="TVPUv2TVgBcwgDp_R8LY-18" target="TVPUv2TVgBcwgDp_R8LY-29" edge="1">
          <mxGeometry relative="1" as="geometry" />
        </mxCell>
        <mxCell id="TVPUv2TVgBcwgDp_R8LY-18" value="&lt;font style=&quot;font-size: 14px;&quot;&gt;Log in&amp;nbsp;&lt;/font&gt;" style="rounded=1;whiteSpace=wrap;html=1;" parent="1" vertex="1">
          <mxGeometry x="-144.99" y="280" width="80" height="30" as="geometry" />
        </mxCell>
        <mxCell id="TVPUv2TVgBcwgDp_R8LY-21" value="&lt;font style=&quot;font-size: 14px;&quot;&gt;Register&lt;/font&gt;" style="rounded=1;whiteSpace=wrap;html=1;" parent="1" vertex="1">
          <mxGeometry x="5.010000000000005" y="270" width="100" height="30" as="geometry" />
        </mxCell>
        <mxCell id="TVPUv2TVgBcwgDp_R8LY-31" style="edgeStyle=orthogonalEdgeStyle;rounded=0;orthogonalLoop=1;jettySize=auto;html=1;exitX=0.583;exitY=1.067;exitDx=0;exitDy=0;entryX=1;entryY=0.5;entryDx=0;entryDy=0;exitPerimeter=0;" parent="1" source="TVPUv2TVgBcwgDp_R8LY-27" target="TVPUv2TVgBcwgDp_R8LY-29" edge="1">
          <mxGeometry relative="1" as="geometry" />
        </mxCell>
        <mxCell id="TVPUv2TVgBcwgDp_R8LY-27" value="&lt;font style=&quot;font-size: 14px;&quot;&gt;&lt;font style=&quot;&quot;&gt;Enter&amp;nbsp;&lt;/font&gt;&lt;span style=&quot;background-color: transparent; color: light-dark(rgb(0, 0, 0), rgb(255, 255, 255));&quot;&gt;medical history, tearments&lt;/span&gt;&lt;/font&gt;" style="rounded=1;whiteSpace=wrap;html=1;" parent="1" vertex="1">
          <mxGeometry x="-69.99" y="320" width="189.99" height="40" as="geometry" />
        </mxCell>
        <mxCell id="TVPUv2TVgBcwgDp_R8LY-28" style="edgeStyle=orthogonalEdgeStyle;rounded=0;orthogonalLoop=1;jettySize=auto;html=1;exitX=0.5;exitY=1;exitDx=0;exitDy=0;entryX=0.686;entryY=-0.039;entryDx=0;entryDy=0;entryPerimeter=0;" parent="1" source="TVPUv2TVgBcwgDp_R8LY-21" target="TVPUv2TVgBcwgDp_R8LY-27" edge="1">
          <mxGeometry relative="1" as="geometry" />
        </mxCell>
        <mxCell id="TVPUv2TVgBcwgDp_R8LY-33" style="edgeStyle=orthogonalEdgeStyle;rounded=0;orthogonalLoop=1;jettySize=auto;html=1;exitX=0.5;exitY=1;exitDx=0;exitDy=0;entryX=0.5;entryY=0;entryDx=0;entryDy=0;" parent="1" source="TVPUv2TVgBcwgDp_R8LY-29" target="TVPUv2TVgBcwgDp_R8LY-32" edge="1">
          <mxGeometry relative="1" as="geometry" />
        </mxCell>
        <mxCell id="TVPUv2TVgBcwgDp_R8LY-29" value="" style="rhombus;whiteSpace=wrap;html=1;" parent="1" vertex="1">
          <mxGeometry x="-44.989999999999995" y="380" width="45" height="40" as="geometry" />
        </mxCell>
        <mxCell id="IzecL8Jo1QE0cevp0j6L-10" style="edgeStyle=orthogonalEdgeStyle;rounded=0;orthogonalLoop=1;jettySize=auto;html=1;exitX=1;exitY=0.5;exitDx=0;exitDy=0;entryX=0.5;entryY=0;entryDx=0;entryDy=0;" parent="1" source="TVPUv2TVgBcwgDp_R8LY-32" target="IzecL8Jo1QE0cevp0j6L-4" edge="1">
          <mxGeometry relative="1" as="geometry" />
        </mxCell>
        <mxCell id="TVPUv2TVgBcwgDp_R8LY-32" value="&lt;font style=&quot;font-size: 14px;&quot;&gt;Select doctor &amp;amp; book appointment&lt;/font&gt;" style="rounded=1;whiteSpace=wrap;html=1;" parent="1" vertex="1">
          <mxGeometry x="-82.49" y="440" width="120" height="40" as="geometry" />
        </mxCell>
        <mxCell id="IzecL8Jo1QE0cevp0j6L-12" style="edgeStyle=orthogonalEdgeStyle;rounded=0;orthogonalLoop=1;jettySize=auto;html=1;exitX=0.5;exitY=1;exitDx=0;exitDy=0;entryX=0.5;entryY=0;entryDx=0;entryDy=0;" parent="1" source="TVPUv2TVgBcwgDp_R8LY-34" target="TVPUv2TVgBcwgDp_R8LY-35" edge="1">
          <mxGeometry relative="1" as="geometry" />
        </mxCell>
        <mxCell id="TVPUv2TVgBcwgDp_R8LY-34" value="&lt;font style=&quot;font-size: 14px;&quot;&gt;Receive notifications&lt;/font&gt;" style="rounded=1;whiteSpace=wrap;html=1;" parent="1" vertex="1">
          <mxGeometry x="-86.24" y="520" width="122.5" height="40" as="geometry" />
        </mxCell>
        <mxCell id="IzecL8Jo1QE0cevp0j6L-17" style="edgeStyle=orthogonalEdgeStyle;rounded=0;orthogonalLoop=1;jettySize=auto;html=1;exitX=0.5;exitY=1;exitDx=0;exitDy=0;entryX=0;entryY=0.25;entryDx=0;entryDy=0;" parent="1" source="2LL7fZl-TJsM6mAqfTEP-3" target="IzecL8Jo1QE0cevp0j6L-14" edge="1">
          <mxGeometry relative="1" as="geometry">
            <Array as="points">
              <mxPoint x="-30" y="800" />
              <mxPoint x="250" y="800" />
              <mxPoint x="250" y="600" />
            </Array>
          </mxGeometry>
        </mxCell>
        <mxCell id="TvnOQCHNAX6UTgUBbO1B-99" style="edgeStyle=orthogonalEdgeStyle;rounded=0;orthogonalLoop=1;jettySize=auto;html=1;exitX=0.5;exitY=1;exitDx=0;exitDy=0;" parent="1" source="TVPUv2TVgBcwgDp_R8LY-35" edge="1">
          <mxGeometry relative="1" as="geometry">
            <mxPoint x="-28.048823529411706" y="660" as="targetPoint" />
          </mxGeometry>
        </mxCell>
        <mxCell id="TVPUv2TVgBcwgDp_R8LY-35" value="&lt;font style=&quot;font-size: 14px;&quot;&gt;Check in&amp;nbsp;&lt;/font&gt;" style="rounded=1;whiteSpace=wrap;html=1;" parent="1" vertex="1">
          <mxGeometry x="-87.49" y="580" width="120" height="40" as="geometry" />
        </mxCell>
        <mxCell id="IzecL8Jo1QE0cevp0j6L-3" value="&lt;font style=&quot;font-size: 24px;&quot;&gt;HMS&lt;/font&gt;" style="text;html=1;align=center;verticalAlign=middle;resizable=0;points=[];autosize=1;strokeColor=none;fillColor=none;" parent="1" vertex="1">
          <mxGeometry x="235" y="53" width="80" height="40" as="geometry" />
        </mxCell>
        <mxCell id="IzecL8Jo1QE0cevp0j6L-11" style="edgeStyle=orthogonalEdgeStyle;rounded=0;orthogonalLoop=1;jettySize=auto;html=1;exitX=0.5;exitY=1;exitDx=0;exitDy=0;entryX=1;entryY=0.5;entryDx=0;entryDy=0;" parent="1" source="IzecL8Jo1QE0cevp0j6L-4" target="TVPUv2TVgBcwgDp_R8LY-34" edge="1">
          <mxGeometry relative="1" as="geometry" />
        </mxCell>
        <mxCell id="IzecL8Jo1QE0cevp0j6L-4" value="&lt;font style=&quot;font-size: 14px;&quot;&gt;Send appointment confirmation &amp;amp; reminder&lt;/font&gt;" style="rounded=1;whiteSpace=wrap;html=1;" parent="1" vertex="1">
          <mxGeometry x="220" y="480" width="160" height="60" as="geometry" />
        </mxCell>
        <mxCell id="IzecL8Jo1QE0cevp0j6L-13" value="&lt;font style=&quot;font-size: 24px;&quot;&gt;Administrative Staff&lt;/font&gt;" style="text;html=1;align=center;verticalAlign=middle;resizable=0;points=[];autosize=1;strokeColor=none;fillColor=none;" parent="1" vertex="1">
          <mxGeometry x="445" y="53" width="230" height="40" as="geometry" />
        </mxCell>
        <mxCell id="IzecL8Jo1QE0cevp0j6L-14" value="&lt;font style=&quot;font-size: 14px;&quot;&gt;Validate patient info&lt;/font&gt;" style="rounded=1;whiteSpace=wrap;html=1;" parent="1" vertex="1">
          <mxGeometry x="480" y="590" width="120" height="40" as="geometry" />
        </mxCell>
        <mxCell id="IzecL8Jo1QE0cevp0j6L-19" value="" style="edgeStyle=orthogonalEdgeStyle;rounded=0;orthogonalLoop=1;jettySize=auto;html=1;exitX=1;exitY=0.5;exitDx=0;exitDy=0;" parent="1" source="IzecL8Jo1QE0cevp0j6L-15" edge="1">
          <mxGeometry relative="1" as="geometry">
            <mxPoint x="890" y="660" as="targetPoint" />
            <Array as="points">
              <mxPoint x="780" y="695" />
              <mxPoint x="780" y="620" />
              <mxPoint x="890" y="620" />
            </Array>
          </mxGeometry>
        </mxCell>
        <mxCell id="IzecL8Jo1QE0cevp0j6L-15" value="&lt;font style=&quot;font-size: 14px;&quot;&gt;Assign unique patient ID&lt;/font&gt;" style="whiteSpace=wrap;html=1;rounded=1;" parent="1" vertex="1">
          <mxGeometry x="480" y="672.5" width="135" height="45" as="geometry" />
        </mxCell>
        <mxCell id="IzecL8Jo1QE0cevp0j6L-21" value="" style="edgeStyle=orthogonalEdgeStyle;rounded=0;orthogonalLoop=1;jettySize=auto;html=1;" parent="1" source="IzecL8Jo1QE0cevp0j6L-18" target="IzecL8Jo1QE0cevp0j6L-20" edge="1">
          <mxGeometry relative="1" as="geometry" />
        </mxCell>
        <mxCell id="IzecL8Jo1QE0cevp0j6L-18" value="&lt;font style=&quot;font-size: 14px;&quot;&gt;View patient records&lt;/font&gt;" style="whiteSpace=wrap;html=1;rounded=1;" parent="1" vertex="1">
          <mxGeometry x="840" y="660" width="140" height="35" as="geometry" />
        </mxCell>
        <mxCell id="IzecL8Jo1QE0cevp0j6L-25" value="" style="edgeStyle=orthogonalEdgeStyle;rounded=0;orthogonalLoop=1;jettySize=auto;html=1;" parent="1" source="IzecL8Jo1QE0cevp0j6L-20" target="IzecL8Jo1QE0cevp0j6L-24" edge="1">
          <mxGeometry relative="1" as="geometry" />
        </mxCell>
        <mxCell id="IzecL8Jo1QE0cevp0j6L-20" value="&lt;font style=&quot;font-size: 14px;&quot;&gt;Examine patient&lt;/font&gt;" style="whiteSpace=wrap;html=1;rounded=1;" parent="1" vertex="1">
          <mxGeometry x="852.5" y="730" width="115" height="30" as="geometry" />
        </mxCell>
        <mxCell id="IzecL8Jo1QE0cevp0j6L-28" value="" style="edgeStyle=orthogonalEdgeStyle;rounded=0;orthogonalLoop=1;jettySize=auto;html=1;" parent="1" source="IzecL8Jo1QE0cevp0j6L-24" target="IzecL8Jo1QE0cevp0j6L-27" edge="1">
          <mxGeometry relative="1" as="geometry" />
        </mxCell>
        <mxCell id="IzecL8Jo1QE0cevp0j6L-29" value="Yes" style="edgeLabel;html=1;align=center;verticalAlign=middle;resizable=0;points=[];" parent="IzecL8Jo1QE0cevp0j6L-28" vertex="1" connectable="0">
          <mxGeometry x="-0.6" y="-1" relative="1" as="geometry">
            <mxPoint as="offset" />
          </mxGeometry>
        </mxCell>
        <mxCell id="lL4PlwEop6gVYXVX2AZE-15" value="&lt;font style=&quot;font-size: 14px;&quot;&gt;Yes&lt;/font&gt;" style="edgeLabel;html=1;align=center;verticalAlign=middle;resizable=0;points=[];" vertex="1" connectable="0" parent="IzecL8Jo1QE0cevp0j6L-28">
          <mxGeometry x="-0.6134" relative="1" as="geometry">
            <mxPoint as="offset" />
          </mxGeometry>
        </mxCell>
        <mxCell id="lL4PlwEop6gVYXVX2AZE-10" style="edgeStyle=orthogonalEdgeStyle;rounded=0;orthogonalLoop=1;jettySize=auto;html=1;exitX=1;exitY=0.5;exitDx=0;exitDy=0;entryX=1;entryY=0.5;entryDx=0;entryDy=0;" edge="1" parent="1" source="IzecL8Jo1QE0cevp0j6L-24" target="TvnOQCHNAX6UTgUBbO1B-32">
          <mxGeometry relative="1" as="geometry">
            <Array as="points">
              <mxPoint x="1030" y="845" />
              <mxPoint x="1030" y="1090" />
            </Array>
          </mxGeometry>
        </mxCell>
        <mxCell id="lL4PlwEop6gVYXVX2AZE-11" value="No" style="edgeLabel;html=1;align=center;verticalAlign=middle;resizable=0;points=[];" vertex="1" connectable="0" parent="lL4PlwEop6gVYXVX2AZE-10">
          <mxGeometry x="0.0264" y="2" relative="1" as="geometry">
            <mxPoint y="-1" as="offset" />
          </mxGeometry>
        </mxCell>
        <mxCell id="lL4PlwEop6gVYXVX2AZE-16" value="&lt;font style=&quot;font-size: 14px;&quot;&gt;No&lt;/font&gt;" style="edgeLabel;html=1;align=center;verticalAlign=middle;resizable=0;points=[];" vertex="1" connectable="0" parent="lL4PlwEop6gVYXVX2AZE-10">
          <mxGeometry x="0.0242" y="2" relative="1" as="geometry">
            <mxPoint as="offset" />
          </mxGeometry>
        </mxCell>
        <mxCell id="IzecL8Jo1QE0cevp0j6L-24" value="&lt;font style=&quot;font-size: 14px;&quot;&gt;Need diagnostic&amp;nbsp;&lt;/font&gt;&lt;div&gt;&lt;font size=&quot;3&quot;&gt;tests?&lt;/font&gt;&lt;/div&gt;" style="rhombus;whiteSpace=wrap;html=1;rounded=1;" parent="1" vertex="1">
          <mxGeometry x="861.25" y="800" width="97.5" height="90" as="geometry" />
        </mxCell>
        <mxCell id="2LL7fZl-TJsM6mAqfTEP-13" style="edgeStyle=orthogonalEdgeStyle;rounded=0;orthogonalLoop=1;jettySize=auto;html=1;exitX=0;exitY=0.5;exitDx=0;exitDy=0;entryX=0.5;entryY=0;entryDx=0;entryDy=0;" parent="1" source="IzecL8Jo1QE0cevp0j6L-27" target="TvnOQCHNAX6UTgUBbO1B-12" edge="1">
          <mxGeometry relative="1" as="geometry">
            <Array as="points">
              <mxPoint x="790" y="970" />
              <mxPoint x="790" y="850" />
              <mxPoint x="250" y="850" />
            </Array>
          </mxGeometry>
        </mxCell>
        <mxCell id="IzecL8Jo1QE0cevp0j6L-27" value="&lt;font style=&quot;font-size: 14px;&quot;&gt;Request diagnostic&amp;nbsp;&lt;/font&gt;&lt;div&gt;&lt;font size=&quot;3&quot;&gt;tests&lt;/font&gt;&lt;/div&gt;" style="whiteSpace=wrap;html=1;rounded=1;" parent="1" vertex="1">
          <mxGeometry x="841.25" y="950" width="137.5" height="40" as="geometry" />
        </mxCell>
        <mxCell id="TvnOQCHNAX6UTgUBbO1B-1" value="&lt;font style=&quot;font-size: 24px;&quot;&gt;Doctor&lt;/font&gt;" style="text;html=1;align=center;verticalAlign=middle;resizable=0;points=[];autosize=1;strokeColor=none;fillColor=none;" parent="1" vertex="1">
          <mxGeometry x="872.5" y="53" width="90" height="40" as="geometry" />
        </mxCell>
        <mxCell id="TvnOQCHNAX6UTgUBbO1B-14" value="" style="edgeStyle=orthogonalEdgeStyle;rounded=0;orthogonalLoop=1;jettySize=auto;html=1;" parent="1" source="TvnOQCHNAX6UTgUBbO1B-12" target="TvnOQCHNAX6UTgUBbO1B-13" edge="1">
          <mxGeometry relative="1" as="geometry" />
        </mxCell>
        <mxCell id="TvnOQCHNAX6UTgUBbO1B-12" value="&lt;font style=&quot;font-size: 14px;&quot;&gt;Log sample collection&lt;/font&gt;" style="rounded=1;whiteSpace=wrap;html=1;" parent="1" vertex="1">
          <mxGeometry x="190" y="910" width="120" height="40" as="geometry" />
        </mxCell>
        <mxCell id="TvnOQCHNAX6UTgUBbO1B-16" value="" style="edgeStyle=orthogonalEdgeStyle;rounded=0;orthogonalLoop=1;jettySize=auto;html=1;" parent="1" source="TvnOQCHNAX6UTgUBbO1B-13" target="TvnOQCHNAX6UTgUBbO1B-15" edge="1">
          <mxGeometry relative="1" as="geometry" />
        </mxCell>
        <mxCell id="TvnOQCHNAX6UTgUBbO1B-13" value="&lt;font style=&quot;font-size: 14px;&quot;&gt;Schedule diagnostics&lt;/font&gt;" style="whiteSpace=wrap;html=1;rounded=1;" parent="1" vertex="1">
          <mxGeometry x="187.5" y="970" width="125" height="50" as="geometry" />
        </mxCell>
        <mxCell id="lL4PlwEop6gVYXVX2AZE-9" style="edgeStyle=orthogonalEdgeStyle;rounded=0;orthogonalLoop=1;jettySize=auto;html=1;exitX=1;exitY=0.5;exitDx=0;exitDy=0;entryX=0.5;entryY=0;entryDx=0;entryDy=0;" edge="1" parent="1" source="TvnOQCHNAX6UTgUBbO1B-15" target="TvnOQCHNAX6UTgUBbO1B-32">
          <mxGeometry relative="1" as="geometry" />
        </mxCell>
        <mxCell id="TvnOQCHNAX6UTgUBbO1B-15" value="&lt;font style=&quot;font-size: 14px;&quot;&gt;Auto-update results&lt;/font&gt;&lt;div&gt;&lt;font style=&quot;font-size: 14px;&quot;&gt;in patient profile&lt;/font&gt;&lt;/div&gt;" style="whiteSpace=wrap;html=1;rounded=1;" parent="1" vertex="1">
          <mxGeometry x="185" y="1040" width="130" height="50" as="geometry" />
        </mxCell>
        <mxCell id="TvnOQCHNAX6UTgUBbO1B-22" value="&lt;font style=&quot;font-size: 24px;&quot;&gt;Hospital Administrator&lt;/font&gt;" style="text;html=1;align=center;verticalAlign=middle;resizable=0;points=[];autosize=1;strokeColor=none;fillColor=none;" parent="1" vertex="1">
          <mxGeometry x="1480" y="53" width="260" height="40" as="geometry" />
        </mxCell>
        <mxCell id="TvnOQCHNAX6UTgUBbO1B-35" value="" style="edgeStyle=orthogonalEdgeStyle;rounded=0;orthogonalLoop=1;jettySize=auto;html=1;exitX=0;exitY=0.5;exitDx=0;exitDy=0;" parent="1" source="TvnOQCHNAX6UTgUBbO1B-32" target="TvnOQCHNAX6UTgUBbO1B-34" edge="1">
          <mxGeometry relative="1" as="geometry">
            <Array as="points">
              <mxPoint x="320" y="1090" />
              <mxPoint x="320" y="1130" />
            </Array>
          </mxGeometry>
        </mxCell>
        <mxCell id="lL4PlwEop6gVYXVX2AZE-14" value="&lt;font style=&quot;font-size: 14px;&quot;&gt;No&lt;/font&gt;" style="edgeLabel;html=1;align=center;verticalAlign=middle;resizable=0;points=[];" vertex="1" connectable="0" parent="TvnOQCHNAX6UTgUBbO1B-35">
          <mxGeometry x="-0.073" y="-2" relative="1" as="geometry">
            <mxPoint as="offset" />
          </mxGeometry>
        </mxCell>
        <mxCell id="TvnOQCHNAX6UTgUBbO1B-37" value="" style="edgeStyle=orthogonalEdgeStyle;rounded=0;orthogonalLoop=1;jettySize=auto;html=1;" parent="1" source="TvnOQCHNAX6UTgUBbO1B-32" target="TvnOQCHNAX6UTgUBbO1B-36" edge="1">
          <mxGeometry relative="1" as="geometry" />
        </mxCell>
        <mxCell id="lL4PlwEop6gVYXVX2AZE-17" value="&lt;font style=&quot;font-size: 14px;&quot;&gt;Yes&lt;/font&gt;" style="edgeLabel;html=1;align=center;verticalAlign=middle;resizable=0;points=[];" vertex="1" connectable="0" parent="TvnOQCHNAX6UTgUBbO1B-37">
          <mxGeometry x="-0.272" y="1" relative="1" as="geometry">
            <mxPoint as="offset" />
          </mxGeometry>
        </mxCell>
        <mxCell id="TvnOQCHNAX6UTgUBbO1B-32" value="&lt;font style=&quot;font-size: 14px;&quot;&gt;Results available?&lt;/font&gt;" style="rhombus;whiteSpace=wrap;html=1;rounded=1;" parent="1" vertex="1">
          <mxGeometry x="877.5" y="1050" width="100" height="80" as="geometry" />
        </mxCell>
        <mxCell id="TvnOQCHNAX6UTgUBbO1B-42" style="edgeStyle=orthogonalEdgeStyle;rounded=0;orthogonalLoop=1;jettySize=auto;html=1;exitX=0.5;exitY=1;exitDx=0;exitDy=0;entryX=0;entryY=0.5;entryDx=0;entryDy=0;" parent="1" source="TvnOQCHNAX6UTgUBbO1B-34" target="TvnOQCHNAX6UTgUBbO1B-40" edge="1">
          <mxGeometry relative="1" as="geometry" />
        </mxCell>
        <mxCell id="TvnOQCHNAX6UTgUBbO1B-34" value="&lt;font style=&quot;font-size: 14px;&quot;&gt;Notify doctor when available&lt;/font&gt;" style="whiteSpace=wrap;html=1;rounded=1;" parent="1" vertex="1">
          <mxGeometry x="190" y="1110" width="115" height="40" as="geometry" />
        </mxCell>
        <mxCell id="TvnOQCHNAX6UTgUBbO1B-41" value="" style="edgeStyle=orthogonalEdgeStyle;rounded=0;orthogonalLoop=1;jettySize=auto;html=1;" parent="1" source="TvnOQCHNAX6UTgUBbO1B-36" target="TvnOQCHNAX6UTgUBbO1B-40" edge="1">
          <mxGeometry relative="1" as="geometry" />
        </mxCell>
        <mxCell id="TvnOQCHNAX6UTgUBbO1B-36" value="&lt;font style=&quot;font-size: 14px;&quot;&gt;View test results&lt;/font&gt;" style="whiteSpace=wrap;html=1;rounded=1;" parent="1" vertex="1">
          <mxGeometry x="870" y="1180" width="115" height="60" as="geometry" />
        </mxCell>
        <mxCell id="2LL7fZl-TJsM6mAqfTEP-17" style="edgeStyle=orthogonalEdgeStyle;rounded=0;orthogonalLoop=1;jettySize=auto;html=1;exitX=0.5;exitY=1;exitDx=0;exitDy=0;entryX=1;entryY=0.75;entryDx=0;entryDy=0;" parent="1" source="TvnOQCHNAX6UTgUBbO1B-40" target="TvnOQCHNAX6UTgUBbO1B-43" edge="1">
          <mxGeometry relative="1" as="geometry" />
        </mxCell>
        <mxCell id="2LL7fZl-TJsM6mAqfTEP-21" value="" style="edgeStyle=orthogonalEdgeStyle;rounded=0;orthogonalLoop=1;jettySize=auto;html=1;" parent="1" source="TvnOQCHNAX6UTgUBbO1B-40" target="2LL7fZl-TJsM6mAqfTEP-20" edge="1">
          <mxGeometry relative="1" as="geometry" />
        </mxCell>
        <mxCell id="TvnOQCHNAX6UTgUBbO1B-40" value="" style="rhombus;whiteSpace=wrap;html=1;rounded=1;" parent="1" vertex="1">
          <mxGeometry x="891.25" y="1260" width="71.25" height="50" as="geometry" />
        </mxCell>
        <mxCell id="TvnOQCHNAX6UTgUBbO1B-48" value="" style="edgeStyle=orthogonalEdgeStyle;rounded=0;orthogonalLoop=1;jettySize=auto;html=1;" parent="1" source="TvnOQCHNAX6UTgUBbO1B-43" target="TvnOQCHNAX6UTgUBbO1B-47" edge="1">
          <mxGeometry relative="1" as="geometry" />
        </mxCell>
        <mxCell id="TvnOQCHNAX6UTgUBbO1B-43" value="Recommend treatment &amp;amp; prescribe medication" style="whiteSpace=wrap;html=1;rounded=1;" parent="1" vertex="1">
          <mxGeometry x="240" y="1300" width="130.01" height="50" as="geometry" />
        </mxCell>
        <mxCell id="TvnOQCHNAX6UTgUBbO1B-50" value="" style="edgeStyle=orthogonalEdgeStyle;rounded=0;orthogonalLoop=1;jettySize=auto;html=1;" parent="1" source="TvnOQCHNAX6UTgUBbO1B-47" target="TvnOQCHNAX6UTgUBbO1B-49" edge="1">
          <mxGeometry relative="1" as="geometry" />
        </mxCell>
        <mxCell id="TvnOQCHNAX6UTgUBbO1B-47" value="Schedule medication &amp;amp; follow-ups" style="whiteSpace=wrap;html=1;rounded=1;" parent="1" vertex="1">
          <mxGeometry x="237.5" y="1390" width="135" height="40" as="geometry" />
        </mxCell>
        <mxCell id="TvnOQCHNAX6UTgUBbO1B-53" value="" style="edgeStyle=orthogonalEdgeStyle;rounded=0;orthogonalLoop=1;jettySize=auto;html=1;" parent="1" source="TvnOQCHNAX6UTgUBbO1B-49" target="TvnOQCHNAX6UTgUBbO1B-52" edge="1">
          <mxGeometry relative="1" as="geometry">
            <Array as="points">
              <mxPoint x="15" y="1440" />
              <mxPoint x="920" y="1440" />
            </Array>
          </mxGeometry>
        </mxCell>
        <mxCell id="TvnOQCHNAX6UTgUBbO1B-49" value="Receive treatment &amp;amp; reminders" style="whiteSpace=wrap;html=1;rounded=1;" parent="1" vertex="1">
          <mxGeometry x="-65" y="1390" width="110" height="40" as="geometry" />
        </mxCell>
        <mxCell id="TvnOQCHNAX6UTgUBbO1B-51" value="" style="endArrow=classic;html=1;rounded=0;exitX=0.55;exitY=1.05;exitDx=0;exitDy=0;exitPerimeter=0;entryX=0.5;entryY=0;entryDx=0;entryDy=0;" parent="1" target="TVPUv2TVgBcwgDp_R8LY-17" edge="1">
          <mxGeometry width="50" height="50" relative="1" as="geometry">
            <mxPoint x="-24.989999999999995" y="140" as="sourcePoint" />
            <mxPoint x="185.01" y="220" as="targetPoint" />
          </mxGeometry>
        </mxCell>
        <mxCell id="TvnOQCHNAX6UTgUBbO1B-56" value="" style="edgeStyle=orthogonalEdgeStyle;rounded=0;orthogonalLoop=1;jettySize=auto;html=1;" parent="1" source="TvnOQCHNAX6UTgUBbO1B-52" target="TvnOQCHNAX6UTgUBbO1B-55" edge="1">
          <mxGeometry relative="1" as="geometry" />
        </mxCell>
        <mxCell id="TvnOQCHNAX6UTgUBbO1B-57" value="&lt;font style=&quot;font-size: 14px;&quot;&gt;No&lt;/font&gt;" style="edgeLabel;html=1;align=center;verticalAlign=middle;resizable=0;points=[];" parent="TvnOQCHNAX6UTgUBbO1B-56" vertex="1" connectable="0">
          <mxGeometry x="-0.8374" y="-1" relative="1" as="geometry">
            <mxPoint y="1" as="offset" />
          </mxGeometry>
        </mxCell>
        <mxCell id="TvnOQCHNAX6UTgUBbO1B-59" value="" style="edgeStyle=orthogonalEdgeStyle;rounded=0;orthogonalLoop=1;jettySize=auto;html=1;" parent="1" source="TvnOQCHNAX6UTgUBbO1B-52" target="TvnOQCHNAX6UTgUBbO1B-58" edge="1">
          <mxGeometry relative="1" as="geometry" />
        </mxCell>
        <mxCell id="TvnOQCHNAX6UTgUBbO1B-60" value="&lt;font style=&quot;font-size: 14px;&quot;&gt;Yes&lt;/font&gt;" style="edgeLabel;html=1;align=center;verticalAlign=middle;resizable=0;points=[];" parent="TvnOQCHNAX6UTgUBbO1B-59" vertex="1" connectable="0">
          <mxGeometry x="-0.3017" y="1" relative="1" as="geometry">
            <mxPoint as="offset" />
          </mxGeometry>
        </mxCell>
        <mxCell id="TvnOQCHNAX6UTgUBbO1B-52" value="&lt;font style=&quot;font-size: 14px;&quot;&gt;Ready for discharge?&lt;/font&gt;" style="rhombus;whiteSpace=wrap;html=1;rounded=1;" parent="1" vertex="1">
          <mxGeometry x="870" y="1455" width="100" height="90" as="geometry" />
        </mxCell>
        <mxCell id="TvnOQCHNAX6UTgUBbO1B-70" value="" style="edgeStyle=orthogonalEdgeStyle;rounded=0;orthogonalLoop=1;jettySize=auto;html=1;entryX=0;entryY=0.5;entryDx=0;entryDy=0;" parent="1" source="TvnOQCHNAX6UTgUBbO1B-55" target="TvnOQCHNAX6UTgUBbO1B-69" edge="1">
          <mxGeometry relative="1" as="geometry">
            <Array as="points">
              <mxPoint x="-90" y="1510" />
              <mxPoint x="-90" y="1900" />
            </Array>
          </mxGeometry>
        </mxCell>
        <mxCell id="TvnOQCHNAX6UTgUBbO1B-55" value="Continue treatment" style="whiteSpace=wrap;html=1;rounded=1;" parent="1" vertex="1">
          <mxGeometry x="-65" y="1480" width="125" height="40" as="geometry" />
        </mxCell>
        <mxCell id="TvnOQCHNAX6UTgUBbO1B-62" value="" style="edgeStyle=orthogonalEdgeStyle;rounded=0;orthogonalLoop=1;jettySize=auto;html=1;" parent="1" source="TvnOQCHNAX6UTgUBbO1B-58" target="TvnOQCHNAX6UTgUBbO1B-61" edge="1">
          <mxGeometry relative="1" as="geometry" />
        </mxCell>
        <mxCell id="TvnOQCHNAX6UTgUBbO1B-58" value="&lt;font style=&quot;font-size: 14px;&quot;&gt;Submit discharge report&lt;/font&gt;" style="whiteSpace=wrap;html=1;rounded=1;" parent="1" vertex="1">
          <mxGeometry x="851.25" y="1630" width="138.75" height="40" as="geometry" />
        </mxCell>
        <mxCell id="TvnOQCHNAX6UTgUBbO1B-64" value="" style="edgeStyle=orthogonalEdgeStyle;rounded=0;orthogonalLoop=1;jettySize=auto;html=1;" parent="1" source="TvnOQCHNAX6UTgUBbO1B-61" target="TvnOQCHNAX6UTgUBbO1B-63" edge="1">
          <mxGeometry relative="1" as="geometry">
            <Array as="points">
              <mxPoint x="310" y="1700" />
            </Array>
          </mxGeometry>
        </mxCell>
        <mxCell id="TvnOQCHNAX6UTgUBbO1B-61" value="&lt;font style=&quot;font-size: 14px;&quot;&gt;Generate billing profile&lt;/font&gt;" style="whiteSpace=wrap;html=1;rounded=1;" parent="1" vertex="1">
          <mxGeometry x="245" y="1630" width="127.5" height="40" as="geometry" />
        </mxCell>
        <mxCell id="TvnOQCHNAX6UTgUBbO1B-66" value="" style="edgeStyle=orthogonalEdgeStyle;rounded=0;orthogonalLoop=1;jettySize=auto;html=1;exitX=0.5;exitY=1;exitDx=0;exitDy=0;" parent="1" source="TvnOQCHNAX6UTgUBbO1B-63" target="TvnOQCHNAX6UTgUBbO1B-65" edge="1">
          <mxGeometry relative="1" as="geometry">
            <Array as="points">
              <mxPoint x="553" y="1750" />
            </Array>
          </mxGeometry>
        </mxCell>
        <mxCell id="TvnOQCHNAX6UTgUBbO1B-63" value="&lt;font style=&quot;font-size: 14px;&quot;&gt;Prepare final bill&lt;/font&gt;" style="whiteSpace=wrap;html=1;rounded=1;" parent="1" vertex="1">
          <mxGeometry x="490" y="1680" width="125" height="30" as="geometry" />
        </mxCell>
        <mxCell id="TvnOQCHNAX6UTgUBbO1B-68" value="" style="edgeStyle=orthogonalEdgeStyle;rounded=0;orthogonalLoop=1;jettySize=auto;html=1;" parent="1" source="TvnOQCHNAX6UTgUBbO1B-65" target="TvnOQCHNAX6UTgUBbO1B-67" edge="1">
          <mxGeometry relative="1" as="geometry" />
        </mxCell>
        <mxCell id="TvnOQCHNAX6UTgUBbO1B-65" value="&lt;font style=&quot;font-size: 14px;&quot;&gt;Get discharge documents&lt;/font&gt;" style="whiteSpace=wrap;html=1;rounded=1;" parent="1" vertex="1">
          <mxGeometry x="-30" y="1730" width="120" height="40" as="geometry" />
        </mxCell>
        <mxCell id="TvnOQCHNAX6UTgUBbO1B-71" style="edgeStyle=orthogonalEdgeStyle;rounded=0;orthogonalLoop=1;jettySize=auto;html=1;exitX=0.5;exitY=1;exitDx=0;exitDy=0;entryX=0.5;entryY=0;entryDx=0;entryDy=0;" parent="1" source="TvnOQCHNAX6UTgUBbO1B-67" target="TvnOQCHNAX6UTgUBbO1B-69" edge="1">
          <mxGeometry relative="1" as="geometry" />
        </mxCell>
        <mxCell id="TvnOQCHNAX6UTgUBbO1B-67" value="&lt;font style=&quot;font-size: 14px;&quot;&gt;Get home-care instructions&lt;/font&gt;" style="whiteSpace=wrap;html=1;rounded=1;" parent="1" vertex="1">
          <mxGeometry x="-24.380000000000003" y="1800" width="108.75" height="40" as="geometry" />
        </mxCell>
        <mxCell id="TvnOQCHNAX6UTgUBbO1B-73" value="" style="edgeStyle=orthogonalEdgeStyle;rounded=0;orthogonalLoop=1;jettySize=auto;html=1;entryX=0;entryY=0.5;entryDx=0;entryDy=0;" parent="1" source="TvnOQCHNAX6UTgUBbO1B-69" target="2LL7fZl-TJsM6mAqfTEP-24" edge="1">
          <mxGeometry relative="1" as="geometry">
            <Array as="points">
              <mxPoint x="30" y="1980" />
            </Array>
          </mxGeometry>
        </mxCell>
        <mxCell id="TvnOQCHNAX6UTgUBbO1B-69" value="" style="rhombus;whiteSpace=wrap;html=1;rounded=1;" parent="1" vertex="1">
          <mxGeometry y="1870" width="60" height="60" as="geometry" />
        </mxCell>
        <mxCell id="2LL7fZl-TJsM6mAqfTEP-33" style="edgeStyle=orthogonalEdgeStyle;rounded=0;orthogonalLoop=1;jettySize=auto;html=1;exitX=0;exitY=0.5;exitDx=0;exitDy=0;entryX=1;entryY=0.5;entryDx=0;entryDy=0;" parent="1" source="TvnOQCHNAX6UTgUBbO1B-72" target="TvnOQCHNAX6UTgUBbO1B-69" edge="1">
          <mxGeometry relative="1" as="geometry" />
        </mxCell>
        <mxCell id="TvnOQCHNAX6UTgUBbO1B-72" value="&lt;div&gt;&lt;font style=&quot;font-size: 14px;&quot;&gt;Trigger alert to Doctor/staff&lt;/font&gt;&lt;/div&gt;" style="whiteSpace=wrap;html=1;rounded=1;" parent="1" vertex="1">
          <mxGeometry x="230" y="1875" width="96.25" height="50" as="geometry" />
        </mxCell>
        <mxCell id="TvnOQCHNAX6UTgUBbO1B-78" value="" style="edgeStyle=orthogonalEdgeStyle;rounded=0;orthogonalLoop=1;jettySize=auto;html=1;" parent="1" source="TvnOQCHNAX6UTgUBbO1B-74" target="TvnOQCHNAX6UTgUBbO1B-77" edge="1">
          <mxGeometry relative="1" as="geometry" />
        </mxCell>
        <mxCell id="TvnOQCHNAX6UTgUBbO1B-74" value="&lt;font style=&quot;font-size: 14px;&quot;&gt;Manage rooms,bed,staff schedules&lt;/font&gt;" style="whiteSpace=wrap;html=1;rounded=1;" parent="1" vertex="1">
          <mxGeometry x="1520" y="1945" width="180" height="70" as="geometry" />
        </mxCell>
        <mxCell id="TvnOQCHNAX6UTgUBbO1B-76" value="" style="endArrow=none;html=1;rounded=0;" parent="1" edge="1">
          <mxGeometry width="50" height="50" relative="1" as="geometry">
            <mxPoint x="1460" y="2440" as="sourcePoint" />
            <mxPoint x="1460" y="40" as="targetPoint" />
          </mxGeometry>
        </mxCell>
        <mxCell id="TvnOQCHNAX6UTgUBbO1B-80" value="" style="edgeStyle=orthogonalEdgeStyle;rounded=0;orthogonalLoop=1;jettySize=auto;html=1;" parent="1" source="TvnOQCHNAX6UTgUBbO1B-77" target="TvnOQCHNAX6UTgUBbO1B-79" edge="1">
          <mxGeometry relative="1" as="geometry" />
        </mxCell>
        <mxCell id="TvnOQCHNAX6UTgUBbO1B-77" value="&lt;font style=&quot;font-size: 18px;&quot;&gt;Track equipment &amp;amp; maintenance&lt;/font&gt;" style="whiteSpace=wrap;html=1;rounded=1;" parent="1" vertex="1">
          <mxGeometry x="1522.5" y="2037.5" width="175" height="60" as="geometry" />
        </mxCell>
        <mxCell id="TvnOQCHNAX6UTgUBbO1B-82" value="" style="edgeStyle=orthogonalEdgeStyle;rounded=0;orthogonalLoop=1;jettySize=auto;html=1;entryX=1;entryY=0.5;entryDx=0;entryDy=0;" parent="1" source="TvnOQCHNAX6UTgUBbO1B-79" target="TvnOQCHNAX6UTgUBbO1B-81" edge="1">
          <mxGeometry relative="1" as="geometry" />
        </mxCell>
        <mxCell id="TvnOQCHNAX6UTgUBbO1B-79" value="&lt;font style=&quot;font-size: 14px;&quot;&gt;Monitor hospital efficiency via diashboards&lt;/font&gt;" style="whiteSpace=wrap;html=1;rounded=1;" parent="1" vertex="1">
          <mxGeometry x="1522.49" y="2120" width="175.01" height="70" as="geometry" />
        </mxCell>
        <mxCell id="TvnOQCHNAX6UTgUBbO1B-84" value="" style="edgeStyle=orthogonalEdgeStyle;rounded=0;orthogonalLoop=1;jettySize=auto;html=1;" parent="1" source="TvnOQCHNAX6UTgUBbO1B-81" target="TvnOQCHNAX6UTgUBbO1B-83" edge="1">
          <mxGeometry relative="1" as="geometry" />
        </mxCell>
        <mxCell id="TvnOQCHNAX6UTgUBbO1B-81" value="&lt;font style=&quot;font-size: 14px;&quot;&gt;Send emergency alerts&lt;/font&gt;" style="whiteSpace=wrap;html=1;rounded=1;" parent="1" vertex="1">
          <mxGeometry x="190" y="2122.5" width="132.51" height="65" as="geometry" />
        </mxCell>
        <mxCell id="lL4PlwEop6gVYXVX2AZE-25" style="edgeStyle=orthogonalEdgeStyle;rounded=0;orthogonalLoop=1;jettySize=auto;html=1;exitX=0;exitY=0.5;exitDx=0;exitDy=0;entryX=1;entryY=0.5;entryDx=0;entryDy=0;" edge="1" parent="1" source="TvnOQCHNAX6UTgUBbO1B-83" target="TvnOQCHNAX6UTgUBbO1B-87">
          <mxGeometry relative="1" as="geometry" />
        </mxCell>
        <mxCell id="TvnOQCHNAX6UTgUBbO1B-83" value="&lt;font style=&quot;font-size: 14px;&quot;&gt;Control temperature,&lt;/font&gt;&lt;div&gt;&lt;font style=&quot;font-size: 14px;&quot;&gt;lighting,environment&lt;/font&gt;&lt;/div&gt;" style="whiteSpace=wrap;html=1;rounded=1;" parent="1" vertex="1">
          <mxGeometry x="185" y="2220" width="142.5" height="80" as="geometry" />
        </mxCell>
        <mxCell id="TvnOQCHNAX6UTgUBbO1B-90" value="" style="edgeStyle=orthogonalEdgeStyle;rounded=0;orthogonalLoop=1;jettySize=auto;html=1;" parent="1" source="TvnOQCHNAX6UTgUBbO1B-87" target="TvnOQCHNAX6UTgUBbO1B-89" edge="1">
          <mxGeometry relative="1" as="geometry" />
        </mxCell>
        <mxCell id="TvnOQCHNAX6UTgUBbO1B-94" value="yes" style="edgeLabel;html=1;align=center;verticalAlign=middle;resizable=0;points=[];" parent="TvnOQCHNAX6UTgUBbO1B-90" vertex="1" connectable="0">
          <mxGeometry x="-0.7" y="-2" relative="1" as="geometry">
            <mxPoint as="offset" />
          </mxGeometry>
        </mxCell>
        <mxCell id="lL4PlwEop6gVYXVX2AZE-24" value="&lt;font style=&quot;font-size: 14px;&quot;&gt;Yes&lt;/font&gt;" style="edgeLabel;html=1;align=center;verticalAlign=middle;resizable=0;points=[];" vertex="1" connectable="0" parent="TvnOQCHNAX6UTgUBbO1B-90">
          <mxGeometry x="-0.6841" y="-2" relative="1" as="geometry">
            <mxPoint as="offset" />
          </mxGeometry>
        </mxCell>
        <mxCell id="TvnOQCHNAX6UTgUBbO1B-93" style="edgeStyle=orthogonalEdgeStyle;rounded=0;orthogonalLoop=1;jettySize=auto;html=1;exitX=0;exitY=0.5;exitDx=0;exitDy=0;entryX=0;entryY=0.5;entryDx=0;entryDy=0;" parent="1" source="TvnOQCHNAX6UTgUBbO1B-87" target="TvnOQCHNAX6UTgUBbO1B-91" edge="1">
          <mxGeometry relative="1" as="geometry">
            <Array as="points">
              <mxPoint x="-70" y="2143" />
              <mxPoint x="-70" y="2320" />
            </Array>
          </mxGeometry>
        </mxCell>
        <mxCell id="TvnOQCHNAX6UTgUBbO1B-95" value="No" style="edgeLabel;html=1;align=center;verticalAlign=middle;resizable=0;points=[];" parent="TvnOQCHNAX6UTgUBbO1B-93" vertex="1" connectable="0">
          <mxGeometry x="-0.1474" relative="1" as="geometry">
            <mxPoint y="1" as="offset" />
          </mxGeometry>
        </mxCell>
        <mxCell id="TvnOQCHNAX6UTgUBbO1B-87" value="&lt;font style=&quot;font-size: 14px;&quot;&gt;Need help navigating?&lt;/font&gt;" style="rhombus;whiteSpace=wrap;html=1;rounded=1;" parent="1" vertex="1">
          <mxGeometry x="-45" y="2097.5" width="110.01" height="90" as="geometry" />
        </mxCell>
        <mxCell id="TvnOQCHNAX6UTgUBbO1B-92" value="" style="edgeStyle=orthogonalEdgeStyle;rounded=0;orthogonalLoop=1;jettySize=auto;html=1;" parent="1" source="TvnOQCHNAX6UTgUBbO1B-89" target="TvnOQCHNAX6UTgUBbO1B-91" edge="1">
          <mxGeometry relative="1" as="geometry" />
        </mxCell>
        <mxCell id="TvnOQCHNAX6UTgUBbO1B-89" value="&lt;font style=&quot;font-size: 14px;&quot;&gt;Use GPS &amp;amp; AI assistant&lt;/font&gt;" style="whiteSpace=wrap;html=1;rounded=1;" parent="1" vertex="1">
          <mxGeometry x="-44.99" y="2220" width="110" height="50" as="geometry" />
        </mxCell>
        <mxCell id="TvnOQCHNAX6UTgUBbO1B-96" style="edgeStyle=orthogonalEdgeStyle;rounded=0;orthogonalLoop=1;jettySize=auto;html=1;exitX=0.5;exitY=1;exitDx=0;exitDy=0;entryX=0.5;entryY=0;entryDx=0;entryDy=0;" parent="1" source="TvnOQCHNAX6UTgUBbO1B-91" target="TVPUv2TVgBcwgDp_R8LY-3" edge="1">
          <mxGeometry relative="1" as="geometry" />
        </mxCell>
        <mxCell id="TvnOQCHNAX6UTgUBbO1B-91" value="" style="rhombus;whiteSpace=wrap;html=1;rounded=1;" parent="1" vertex="1">
          <mxGeometry x="-24.990000000000002" y="2290" width="70" height="60" as="geometry" />
        </mxCell>
        <mxCell id="TvnOQCHNAX6UTgUBbO1B-97" value="" style="endArrow=none;html=1;rounded=0;" parent="1" edge="1">
          <mxGeometry width="50" height="50" relative="1" as="geometry">
            <mxPoint x="-160" y="2440" as="sourcePoint" />
            <mxPoint x="1760" y="2440" as="targetPoint" />
          </mxGeometry>
        </mxCell>
        <mxCell id="TvnOQCHNAX6UTgUBbO1B-98" value="" style="endArrow=none;html=1;rounded=0;" parent="1" edge="1">
          <mxGeometry width="50" height="50" relative="1" as="geometry">
            <mxPoint x="-84.99" y="660" as="sourcePoint" />
            <mxPoint x="25.010000000000005" y="660" as="targetPoint" />
          </mxGeometry>
        </mxCell>
        <mxCell id="2LL7fZl-TJsM6mAqfTEP-4" value="" style="edgeStyle=orthogonalEdgeStyle;rounded=0;orthogonalLoop=1;jettySize=auto;html=1;entryX=0;entryY=0.5;entryDx=0;entryDy=0;" parent="1" source="TvnOQCHNAX6UTgUBbO1B-101" target="2LL7fZl-TJsM6mAqfTEP-3" edge="1">
          <mxGeometry relative="1" as="geometry" />
        </mxCell>
        <mxCell id="TvnOQCHNAX6UTgUBbO1B-101" value="&lt;font style=&quot;font-size: 14px;&quot;&gt;via QR&lt;/font&gt;" style="rounded=1;whiteSpace=wrap;html=1;" parent="1" vertex="1">
          <mxGeometry x="-124.99" y="680" width="80" height="30" as="geometry" />
        </mxCell>
        <mxCell id="TvnOQCHNAX6UTgUBbO1B-102" value="" style="endArrow=classic;html=1;rounded=0;entryX=0.5;entryY=0;entryDx=0;entryDy=0;" parent="1" target="TvnOQCHNAX6UTgUBbO1B-101" edge="1">
          <mxGeometry width="50" height="50" relative="1" as="geometry">
            <mxPoint x="-84.99" y="660" as="sourcePoint" />
            <mxPoint x="325.01" y="700" as="targetPoint" />
          </mxGeometry>
        </mxCell>
        <mxCell id="2LL7fZl-TJsM6mAqfTEP-5" style="edgeStyle=orthogonalEdgeStyle;rounded=0;orthogonalLoop=1;jettySize=auto;html=1;exitX=0.5;exitY=1;exitDx=0;exitDy=0;entryX=1;entryY=0.5;entryDx=0;entryDy=0;" parent="1" source="TvnOQCHNAX6UTgUBbO1B-103" target="2LL7fZl-TJsM6mAqfTEP-3" edge="1">
          <mxGeometry relative="1" as="geometry" />
        </mxCell>
        <mxCell id="TvnOQCHNAX6UTgUBbO1B-103" value="&lt;font style=&quot;font-size: 14px;&quot;&gt;via desk&lt;/font&gt;" style="rounded=1;whiteSpace=wrap;html=1;" parent="1" vertex="1">
          <mxGeometry x="-14.989999999999995" y="680" width="85" height="30" as="geometry" />
        </mxCell>
        <mxCell id="TvnOQCHNAX6UTgUBbO1B-104" value="" style="endArrow=classic;html=1;rounded=0;entryX=0.5;entryY=0;entryDx=0;entryDy=0;" parent="1" target="TvnOQCHNAX6UTgUBbO1B-103" edge="1">
          <mxGeometry width="50" height="50" relative="1" as="geometry">
            <mxPoint x="25.010000000000005" y="660" as="sourcePoint" />
            <mxPoint x="325.01" y="700" as="targetPoint" />
          </mxGeometry>
        </mxCell>
        <mxCell id="2LL7fZl-TJsM6mAqfTEP-2" value="" style="endArrow=none;html=1;rounded=0;" parent="1" edge="1">
          <mxGeometry width="50" height="50" relative="1" as="geometry">
            <mxPoint x="1760" y="2440" as="sourcePoint" />
            <mxPoint x="1760" y="40" as="targetPoint" />
          </mxGeometry>
        </mxCell>
        <mxCell id="2LL7fZl-TJsM6mAqfTEP-3" value="" style="rhombus;whiteSpace=wrap;html=1;rounded=1;" parent="1" vertex="1">
          <mxGeometry x="-59.989999999999995" y="730" width="60" height="50" as="geometry" />
        </mxCell>
        <mxCell id="2LL7fZl-TJsM6mAqfTEP-14" value="" style="ellipse;blackSpace=wrap;html=1;fillColor=#000000;" parent="1" vertex="1">
          <mxGeometry x="-42.51" y="120" width="37.52" height="30" as="geometry" />
        </mxCell>
        <mxCell id="2LL7fZl-TJsM6mAqfTEP-15" value="&lt;font style=&quot;font-size: 24px;&quot;&gt;IoT Devices&lt;/font&gt;" style="text;html=1;align=center;verticalAlign=middle;resizable=0;points=[];autosize=1;strokeColor=none;fillColor=none;" parent="1" vertex="1">
          <mxGeometry x="1220" y="53" width="150" height="40" as="geometry" />
        </mxCell>
        <mxCell id="2LL7fZl-TJsM6mAqfTEP-23" value="" style="edgeStyle=orthogonalEdgeStyle;rounded=0;orthogonalLoop=1;jettySize=auto;html=1;" parent="1" source="2LL7fZl-TJsM6mAqfTEP-20" target="2LL7fZl-TJsM6mAqfTEP-22" edge="1">
          <mxGeometry relative="1" as="geometry" />
        </mxCell>
        <mxCell id="2LL7fZl-TJsM6mAqfTEP-20" value="&lt;font style=&quot;font-size: 14px;&quot;&gt;Monitor vitals (wearables,smart bes)&lt;/font&gt;" style="whiteSpace=wrap;html=1;rounded=1;" parent="1" vertex="1">
          <mxGeometry x="1235.0049999999999" y="1255" width="120" height="60" as="geometry" />
        </mxCell>
        <mxCell id="2LL7fZl-TJsM6mAqfTEP-31" style="edgeStyle=orthogonalEdgeStyle;rounded=0;orthogonalLoop=1;jettySize=auto;html=1;exitX=0.5;exitY=1;exitDx=0;exitDy=0;entryX=1;entryY=0.5;entryDx=0;entryDy=0;" parent="1" source="2LL7fZl-TJsM6mAqfTEP-22" target="TvnOQCHNAX6UTgUBbO1B-72" edge="1">
          <mxGeometry relative="1" as="geometry" />
        </mxCell>
        <mxCell id="2LL7fZl-TJsM6mAqfTEP-34" value="&lt;font style=&quot;font-size: 14px;&quot;&gt;Yes&lt;/font&gt;" style="edgeLabel;html=1;align=center;verticalAlign=middle;resizable=0;points=[];" parent="2LL7fZl-TJsM6mAqfTEP-31" vertex="1" connectable="0">
          <mxGeometry x="-0.7188" y="2" relative="1" as="geometry">
            <mxPoint as="offset" />
          </mxGeometry>
        </mxCell>
        <mxCell id="lL4PlwEop6gVYXVX2AZE-18" style="edgeStyle=orthogonalEdgeStyle;rounded=0;orthogonalLoop=1;jettySize=auto;html=1;exitX=1;exitY=0.5;exitDx=0;exitDy=0;entryX=1;entryY=0.5;entryDx=0;entryDy=0;" edge="1" parent="1" source="2LL7fZl-TJsM6mAqfTEP-22" target="2LL7fZl-TJsM6mAqfTEP-20">
          <mxGeometry relative="1" as="geometry">
            <Array as="points">
              <mxPoint x="1400" y="1480" />
              <mxPoint x="1400" y="1285" />
            </Array>
          </mxGeometry>
        </mxCell>
        <mxCell id="lL4PlwEop6gVYXVX2AZE-19" value="&lt;font style=&quot;font-size: 14px;&quot;&gt;No&lt;/font&gt;" style="edgeLabel;html=1;align=center;verticalAlign=middle;resizable=0;points=[];" vertex="1" connectable="0" parent="lL4PlwEop6gVYXVX2AZE-18">
          <mxGeometry x="0.0176" relative="1" as="geometry">
            <mxPoint as="offset" />
          </mxGeometry>
        </mxCell>
        <mxCell id="2LL7fZl-TJsM6mAqfTEP-22" value="&lt;font style=&quot;font-size: 14px;&quot;&gt;Alert&lt;/font&gt;&lt;div&gt;&lt;font size=&quot;3&quot;&gt;&amp;nbsp;condition met?&lt;/font&gt;&lt;/div&gt;" style="rhombus;whiteSpace=wrap;html=1;rounded=1;" parent="1" vertex="1">
          <mxGeometry x="1223.75" y="1430" width="142.51" height="100" as="geometry" />
        </mxCell>
        <mxCell id="2LL7fZl-TJsM6mAqfTEP-35" style="edgeStyle=orthogonalEdgeStyle;rounded=0;orthogonalLoop=1;jettySize=auto;html=1;exitX=1;exitY=0.5;exitDx=0;exitDy=0;entryX=0;entryY=0.5;entryDx=0;entryDy=0;" parent="1" source="2LL7fZl-TJsM6mAqfTEP-24" target="TvnOQCHNAX6UTgUBbO1B-74" edge="1">
          <mxGeometry relative="1" as="geometry" />
        </mxCell>
        <mxCell id="2LL7fZl-TJsM6mAqfTEP-24" value="&lt;font style=&quot;font-size: 14px;&quot;&gt;Send&lt;/font&gt;&lt;div&gt;&lt;font style=&quot;font-size: 14px;&quot;&gt;&amp;nbsp;final notification&lt;/font&gt;&lt;div&gt;&lt;br&gt;&lt;/div&gt;&lt;/div&gt;" style="whiteSpace=wrap;html=1;rounded=1;" parent="1" vertex="1">
          <mxGeometry x="227.50499999999988" y="1950" width="120" height="60" as="geometry" />
        </mxCell>
        <mxCell id="lL4PlwEop6gVYXVX2AZE-7" style="edgeStyle=orthogonalEdgeStyle;rounded=0;orthogonalLoop=1;jettySize=auto;html=1;exitX=0.5;exitY=1;exitDx=0;exitDy=0;entryX=0.444;entryY=-0.067;entryDx=0;entryDy=0;entryPerimeter=0;" edge="1" parent="1" source="IzecL8Jo1QE0cevp0j6L-14" target="IzecL8Jo1QE0cevp0j6L-15">
          <mxGeometry relative="1" as="geometry" />
        </mxCell>
        <mxCell id="lL4PlwEop6gVYXVX2AZE-21" style="edgeStyle=orthogonalEdgeStyle;rounded=0;orthogonalLoop=1;jettySize=auto;html=1;exitX=0;exitY=0.5;exitDx=0;exitDy=0;entryX=0.311;entryY=-0.057;entryDx=0;entryDy=0;entryPerimeter=0;" edge="1" parent="1" source="TVPUv2TVgBcwgDp_R8LY-17" target="TVPUv2TVgBcwgDp_R8LY-18">
          <mxGeometry relative="1" as="geometry">
            <Array as="points">
              <mxPoint x="-120" y="220" />
              <mxPoint x="-120" y="278" />
            </Array>
          </mxGeometry>
        </mxCell>
        <mxCell id="lL4PlwEop6gVYXVX2AZE-23" value="&lt;font style=&quot;font-size: 14px;&quot;&gt;Yes&lt;/font&gt;" style="edgeLabel;html=1;align=center;verticalAlign=middle;resizable=0;points=[];" vertex="1" connectable="0" parent="lL4PlwEop6gVYXVX2AZE-21">
          <mxGeometry x="-0.6896" relative="1" as="geometry">
            <mxPoint as="offset" />
          </mxGeometry>
        </mxCell>
      </root>
    </mxGraphModel>
  </diagram>
</mxfile>
